<svg version="1.1" viewBox="0.0 0.0 540.0 540.0" fill="none" stroke="none" stroke-linecap="square" stroke-miterlimit="10" xmlns:xlink="http://www.w3.org/1999/xlink" xmlns="http://www.w3.org/2000/svg"><clipPath id="p.0"><path d="m0 0l720.0 0l0 540.0l-720.0 0l0 -540.0z" clip-rule="nonzero"/></clipPath><g clip-path="url(#p.0)"><path fill="#000000" fill-opacity="0.0" d="m0 0l720.0 0l0 540.0l-720.0 0z" fill-rule="evenodd"/><path fill="#36c7d4" d="m212.4 53.102364l0 0c0 -29.327625 23.77475 -53.102364 53.102356 -53.102364l0 0c14.083649 0 27.590424 5.594697 37.54904 15.553322c9.958649 9.958624 15.553345 23.46542 15.553345 37.54904l0 0c0 29.327621 -23.77475 53.102364 -53.102386 53.102364l0 0c-29.327606 0 -53.102356 -23.774742 -53.102356 -53.102364z" fill-rule="evenodd"/><path fill="#36c7d4" d="m212.4 265.50235l0 0c0 -29.327606 23.77475 -53.102356 53.102356 -53.102356l0 0c14.083649 0 27.590424 5.594696 37.54904 15.553329c9.958649 9.958618 15.553345 23.465424 15.553345 37.549026l0 0c0 29.327637 -23.77475 53.102386 -53.102386 53.102386l0 0c-29.327606 0 -53.102356 -23.77475 -53.102356 -53.102386z" fill-rule="evenodd"/><path fill="#36c7d4" d="m212.4 477.90237l0 0c0 -29.327637 23.77475 -53.102386 53.102356 -53.102386l0 0c14.083649 0 27.590424 5.594696 37.54904 15.553345c9.958649 9.958618 15.553345 23.465393 15.553345 37.54904l0 0c0 29.327606 -23.77475 53.102325 -53.102386 53.102325l0 0c-29.327606 0 -53.102356 -23.77472 -53.102356 -53.102325z" fill-rule="evenodd"/><path fill="#36c7d4" d="m0 265.50235l0 0c0 -29.327606 23.774738 -53.102356 53.102364 -53.102356l0 0c14.083618 0 27.590416 5.594696 37.54904 15.553329c9.958618 9.958618 15.553322 23.465424 15.553322 37.549026l0 0c0 29.327637 -23.774742 53.102386 -53.102364 53.102386l0 0c-29.327625 0 -53.102364 -23.77475 -53.102364 -53.102386z" fill-rule="evenodd"/><path fill="#36c7d4" d="m424.8 265.50235l0 0c0 -29.327606 23.77475 -53.102356 53.102386 -53.102356l0 0c14.083618 0 27.590393 5.594696 37.54904 15.553329c9.958618 9.958618 15.553284 23.465424 15.553284 37.549026l0 0c0 29.327637 -23.77472 53.102386 -53.102325 53.102386l0 0c-29.327637 0 -53.102386 -23.77475 -53.102386 -53.102386z" fill-rule="evenodd"/></g></svg>
